<svg xmlns="http://www.w3.org/2000/svg" width="507" height="158.647" viewBox="0 0 507 158.647">
  <g id="Group_841" data-name="Group 841" transform="translate(-371 -780.655)">
    <g id="Group_27" data-name="Group 27" transform="translate(0 -1339)">
      <g id="Group_26" data-name="Group 26">
        <circle id="Ellipse_1" data-name="Ellipse 1" cx="18.5" cy="18.5" r="18.5" transform="translate(605.551 2226)" fill="#ff3797"/>
        <text id="_2" data-name="2" transform="translate(618.036 2251.732)" fill="#fff" font-size="23" font-family="SegoeUI, Segoe UI"><tspan x="0" y="0">2</tspan></text>
      </g>
    </g>
    <g id="Group_29" data-name="Group 29" transform="translate(0 -1339)">
      <g id="Group_28" data-name="Group 28">
        <circle id="Ellipse_2" data-name="Ellipse 2" cx="18.5" cy="18.5" r="18.5" transform="translate(371 2123)" fill="#4bc1c2"/>
        <text id="_1" data-name="1" transform="translate(384.485 2149.732)" fill="#fff" font-size="23" font-family="SegoeUI, Segoe UI"><tspan x="0" y="0">1</tspan></text>
      </g>
    </g>
    <g id="Group_30" data-name="Group 30" transform="translate(0 -1339)">
      <circle id="Ellipse_3" data-name="Ellipse 3" cx="18.5" cy="18.5" r="18.5" transform="translate(841 2132)" fill="#4bc1c2"/>
      <text id="_3" data-name="3" transform="translate(855.485 2157.732)" fill="#fff" font-size="23" font-family="SegoeUI, Segoe UI"><tspan x="0" y="0">3</tspan></text>
    </g>
    <g id="Group_840" data-name="Group 840">
      <g id="Group_839" data-name="Group 839">
        <g id="Group_25" data-name="Group 25" transform="translate(0 -1339)" opacity="0.22">
          <path id="Path_36" data-name="Path 36" d="M607.78,2234.482q.675.924,1.315,1.837a.46.46,0,1,1-.753.528q-.634-.906-1.3-1.822a.46.46,0,0,1,.743-.543Zm3.092,4.456q.63.96,1.217,1.905a.46.46,0,1,1-.78.486q-.584-.936-1.206-1.888a.459.459,0,0,1,.769-.5Z" fill="none" stroke="#54488b" stroke-miterlimit="10" stroke-width="0.5" stroke-dasharray="8 8 8"/>
          <path id="Path_37" data-name="Path 37" d="M515.6,2177.8a.459.459,0,0,1-.52.39q-1.105-.159-2.219-.3a.46.46,0,0,1,.114-.913q1.121.14,2.237.3A.46.46,0,0,1,515.6,2177.8Zm2.733-.028q1.113.19,2.218.4a.459.459,0,0,1,.365.538.463.463,0,0,1-.538.365q-1.1-.21-2.2-.4a.46.46,0,0,1,.145-.908Zm-8.086-.635a.461.461,0,0,1-.5.414q-1.111-.108-2.229-.193a.452.452,0,0,1-.424-.493.459.459,0,0,1,.493-.423q1.128.086,2.248.193l.024,0A.461.461,0,0,1,510.244,2177.134Zm13.4,1.671q1.105.242,2.2.5a.46.46,0,0,1,.341.554.454.454,0,0,1-.554.341q-1.089-.259-2.185-.5a.46.46,0,0,1,.165-.9Zm-18.78-2.081a.46.46,0,0,1-.482.437q-1.115-.054-2.235-.085a.46.46,0,1,1,.026-.92q1.13.033,2.254.086l.046.005A.46.46,0,0,1,504.866,2176.724Zm24.048,3.356q1.094.291,2.178.6a.459.459,0,1,1-.253.883q-1.075-.306-2.161-.594a.46.46,0,0,1,.185-.9Zm-29.44-3.509a.46.46,0,0,1-.46.46q-1.115,0-2.236.022a.464.464,0,0,1-.469-.451.459.459,0,0,1,.451-.468q1.131-.023,2.255-.023a.518.518,0,0,1,.068.006A.46.46,0,0,1,499.474,2176.571Zm34.647,5.015q1.08.338,2.15.693a.459.459,0,1,1-.29.872q-1.062-.352-2.134-.688a.459.459,0,0,1,.205-.893A.438.438,0,0,1,534.121,2181.586Zm-40.04-4.906a.459.459,0,0,1-.437.481q-1.116.054-2.237.131a.46.46,0,1,1-.063-.917q1.129-.078,2.255-.132a.451.451,0,0,1,.091,0A.461.461,0,0,1,494.081,2176.68Zm45.179,6.632q1.063.382,2.118.781a.46.46,0,0,1-.325.861q-1.048-.4-2.1-.777a.46.46,0,0,1,.223-.888A.479.479,0,0,1,539.26,2183.312Zm-50.567-6.262a.459.459,0,0,1-.413.5q-1.111.108-2.228.24a.46.46,0,0,1-.107-.913q1.125-.133,2.246-.242a.475.475,0,0,1,.112,0A.46.46,0,0,1,488.693,2177.05Zm55.628,8.2q1.049.426,2.085.868a.46.46,0,1,1-.36.846q-1.031-.439-2.071-.862a.46.46,0,0,1,.241-.881A.511.511,0,0,1,544.321,2185.248Zm-60.991-7.567a.458.458,0,0,1-.388.521q-1.105.162-2.214.347a.46.46,0,1,1-.152-.907q1.119-.186,2.233-.349a.425.425,0,0,1,.134,0A.461.461,0,0,1,483.33,2177.681Zm65.97,9.706q1.031.467,2.049.949a.46.46,0,0,1-.393.831q-1.012-.479-2.035-.942a.46.46,0,0,1,.256-.874A.448.448,0,0,1,549.3,2187.387Zm-71.3-8.819a.461.461,0,0,1-.363.54q-1.1.215-2.195.452a.46.46,0,0,1-.2-.9q1.108-.24,2.213-.456a.462.462,0,0,1,.54.363Zm76.187,11.151q1.013.507,2.011,1.027a.459.459,0,1,1-.424.815q-.993-.516-2-1.02a.459.459,0,0,1,.273-.865A.464.464,0,0,1,554.191,2189.719Zm4.8,2.516q.993.543,1.971,1.1a.46.46,0,0,1-.454.8q-.972-.553-1.959-1.094a.46.46,0,1,1,.442-.806Zm-86.264-12.527a.46.46,0,0,1-.338.556q-1.083.266-2.172.554a.46.46,0,0,1-.235-.889q1.1-.291,2.188-.558a.444.444,0,0,1,.178-.008A.461.461,0,0,1,472.726,2179.708Zm90.966,15.217q.972.58,1.931,1.172a.46.46,0,0,1-.484.783q-.951-.589-1.918-1.165a.46.46,0,0,1,.3-.85A.481.481,0,0,1,563.692,2194.925Zm-96.186-13.832a.46.46,0,0,1-.311.571q-1.071.315-2.145.653a.46.46,0,1,1-.276-.877q1.082-.341,2.161-.658a.443.443,0,0,1,.2-.014A.461.461,0,0,1,467.506,2181.093Zm100.789,16.691q.951.615,1.887,1.24a.459.459,0,0,1-.51.764q-.931-.62-1.876-1.231a.46.46,0,0,1,.318-.841A.468.468,0,0,1,568.295,2197.784Zm-105.94-15.07a.459.459,0,0,1-.285.584q-1.056.363-2.114.748a.46.46,0,1,1-.314-.864q1.066-.387,2.129-.753a.451.451,0,0,1,.217-.02A.459.459,0,0,1,462.355,2182.714ZM572.793,2200.8q.928.647,1.843,1.3a.46.46,0,1,1-.537.747q-.909-.653-1.832-1.3a.46.46,0,1,1,.526-.754Zm-115.512-16.243a.459.459,0,0,1-.26.6q-1.038.408-2.079.839a.46.46,0,0,1-.352-.849q1.049-.435,2.1-.845a.447.447,0,0,1,.235-.027A.459.459,0,0,1,457.281,2184.562Zm119.9,19.416q.906.679,1.8,1.367a.46.46,0,0,1-.562.728q-.885-.684-1.787-1.359a.46.46,0,0,1,.345-.823A.453.453,0,0,1,577.184,2203.978Zm-124.892-17.351a.46.46,0,0,1-.235.606q-1.02.453-2.043.926a.46.46,0,0,1-.386-.835q1.031-.477,2.057-.931a.456.456,0,0,1,.253-.035A.463.463,0,0,1,452.292,2186.627ZM581.464,2207.3q.882.711,1.749,1.427a.46.46,0,0,1-.586.709q-.861-.713-1.74-1.419a.46.46,0,0,1,.577-.717Zm-134.075-18.4a.46.46,0,0,1-.21.615q-1,.49-2.006,1.006a.46.46,0,0,1-.419-.819q1.014-.519,2.019-1.013a.465.465,0,0,1,.27-.042A.461.461,0,0,1,447.389,2188.9Zm138.238,21.871q.858.741,1.7,1.486a.46.46,0,1,1-.61.688q-.836-.741-1.69-1.477a.46.46,0,0,1,.6-.7Zm-143.047-19.41a.459.459,0,0,1-.184.624q-.979.534-1.96,1.09a.46.46,0,1,1-.454-.8q.986-.562,1.975-1.1a.454.454,0,0,1,.287-.051A.461.461,0,0,1,442.58,2191.357Zm147.09,23.017q.834.769,1.647,1.543a.46.46,0,0,1-.633.667q-.81-.769-1.638-1.535a.46.46,0,0,1,.624-.675Zm-151.784-20.346a.46.46,0,0,1-.154.632q-.955.581-1.9,1.184a.46.46,0,1,1-.495-.775q.954-.609,1.919-1.2a.46.46,0,0,1,.632.154Zm155.7,24.091q.807.8,1.593,1.6a.459.459,0,1,1-.656.643q-.781-.8-1.583-1.59a.46.46,0,1,1,.646-.654Zm-160.252-21.183a.459.459,0,0,1-.118.639c-.629.432-1.244.866-1.829,1.292a.46.46,0,1,1-.541-.743c.592-.431,1.214-.87,1.849-1.307a.459.459,0,0,1,.639.119ZM597.366,2222q.778.829,1.534,1.658a.46.46,0,1,1-.68.619q-.75-.824-1.524-1.647a.459.459,0,0,1,.4-.769A.455.455,0,0,1,597.366,2222Zm-168.4-21.887a.461.461,0,0,1-.076.646c-.592.467-1.175.943-1.733,1.414a.46.46,0,1,1-.593-.7c.565-.478,1.156-.96,1.756-1.434a.46.46,0,0,1,.646.076ZM601,2226.019q.75.859,1.47,1.716a.46.46,0,1,1-.7.592q-.715-.85-1.459-1.7a.46.46,0,1,1,.693-.6Zm3.478,4.159q.715.891,1.4,1.775a.46.46,0,0,1-.728.563q-.678-.879-1.387-1.762a.46.46,0,1,1,.717-.576ZM424.835,2203.6a.459.459,0,0,1-.023.65c-.55.512-1.089,1.034-1.6,1.553a.46.46,0,0,1-.653-.648c.524-.527,1.072-1.058,1.63-1.578a.461.461,0,0,1,.65.023Zm-3.8,3.834a.459.459,0,0,1,.042.648c-.495.563-.976,1.137-1.431,1.709a.46.46,0,0,1-.719-.574c.464-.583.955-1.168,1.459-1.741a.458.458,0,0,1,.649-.042Zm-3.362,4.223a.458.458,0,0,1,.122.638c-.42.616-.823,1.246-1.2,1.873a.46.46,0,1,1-.789-.472c.385-.643.8-1.288,1.227-1.918a.46.46,0,0,1,.448-.2A.449.449,0,0,1,417.67,2211.654Zm-2.775,4.628a.459.459,0,0,1,.206.617c-.333.668-.649,1.347-.938,2.017a.46.46,0,0,1-.845-.365c.3-.685.62-1.379.96-2.063a.46.46,0,0,1,.48-.249A.439.439,0,0,1,414.895,2216.282Zm-2.14,4.955a.459.459,0,0,1,.289.582c-.24.71-.457,1.424-.645,2.126a.46.46,0,0,1-.888-.239c.193-.72.416-1.454.662-2.181a.46.46,0,0,1,.5-.308A.446.446,0,0,1,412.755,2221.237Zm-1.4,5.212a.46.46,0,0,1,.378.529c-.026.154-.05.307-.073.463-.086.577-.155,1.16-.2,1.733a.46.46,0,0,1-.5.419.455.455,0,0,1-.419-.5c.051-.591.122-1.194.211-1.789q.034-.24.075-.479a.459.459,0,0,1,.521-.379Zm49.521,9.75a.461.461,0,0,1-.013.651q-.806.772-1.611,1.567a.46.46,0,0,1-.644-.657q.81-.8,1.618-1.574a.462.462,0,0,1,.387-.123A.469.469,0,0,1,460.881,2236.2Zm-49.5-3.933c.026.74.086,1.48.179,2.2a.46.46,0,0,1-.912.118c-.1-.746-.159-1.515-.186-2.285a.46.46,0,0,1,.444-.475.479.479,0,0,1,.084,0A.46.46,0,0,1,411.378,2232.266Zm45.64,7.711a.459.459,0,0,1-.007.65q-.8.788-1.62,1.572a.459.459,0,1,1-.635-.664c.542-.519,1.079-1.042,1.612-1.564a.459.459,0,0,1,.65.006Zm-44.852-2.492a21.017,21.017,0,0,0,.7,2.087.46.46,0,0,1-.856.337,22.269,22.269,0,0,1-.727-2.179.461.461,0,0,1,.321-.566.453.453,0,0,1,.19-.011A.461.461,0,0,1,412.166,2237.485Zm40.942,6.221a.459.459,0,0,1-.034.649c-.584.525-1.159,1.025-1.71,1.488a.46.46,0,0,1-.592-.705c.544-.456,1.111-.949,1.687-1.466a.459.459,0,0,1,.649.034Zm-4.142,3.465a.46.46,0,0,1-.1.643c-.622.459-1.25.9-1.866,1.3a.46.46,0,1,1-.505-.768c.6-.4,1.216-.824,1.825-1.274a.458.458,0,0,1,.642.1Zm-34.773-4.821c.36.629.76,1.254,1.188,1.856a.459.459,0,1,1-.748.533,22.864,22.864,0,0,1-1.238-1.932.46.46,0,0,1,.171-.627.451.451,0,0,1,.3-.056A.457.457,0,0,1,414.193,2242.35Zm30.259,7.778a.459.459,0,0,1-.188.622c-.68.364-1.37.7-2.051,1a.46.46,0,1,1-.374-.84c.66-.294,1.33-.623,1.991-.976a.46.46,0,0,1,.622.189Zm-27.116-3.538a17.978,17.978,0,0,0,1.606,1.494.46.46,0,0,1-.585.71,19.252,19.252,0,0,1-1.688-1.57.46.46,0,1,1,.667-.634Zm22.177,5.7a.461.461,0,0,1-.317.568,22.9,22.9,0,0,1-2.237.515.46.46,0,1,1-.161-.905,21.832,21.832,0,0,0,2.147-.495.473.473,0,0,1,.193-.013A.461.461,0,0,1,439.513,2252.293Zm-18.05-2.452a20.73,20.73,0,0,0,1.956,1.009.46.46,0,1,1-.378.838,21.441,21.441,0,0,1-2.042-1.053.46.46,0,0,1,.3-.852A.482.482,0,0,1,421.463,2249.841Zm12.745,3.405a.46.46,0,0,1-.441.478c-.759.031-1.53.027-2.293-.015a.451.451,0,0,1-.434-.483.459.459,0,0,1,.483-.434c.734.039,1.476.043,2.206.013a.5.5,0,0,1,.088.005A.46.46,0,0,1,434.208,2253.246Zm-7.9-1.333c.7.2,1.423.375,2.145.511a.459.459,0,0,1,.367.537.454.454,0,0,1-.537.367c-.751-.142-1.5-.32-2.232-.532a.46.46,0,0,1,.2-.9A.49.49,0,0,1,426.313,2251.913Z" fill="none" stroke="#54488b" stroke-miterlimit="10" stroke-width="0.5" stroke-dasharray="8 8 8"/>
          <path id="Path_38" data-name="Path 38" d="M463.829,2233.121a.456.456,0,0,0-.368.106q-.436.376-.87.764a.829.829,0,0,0,1.46.786q.08-.566.164-1.133a.459.459,0,0,0-.386-.523Z" fill="none" stroke="#54488b" stroke-miterlimit="10" stroke-width="0.5" stroke-dasharray="8 8 8"/>
          <path id="Path_39" data-name="Path 39" d="M463.663,2237.987c-.079.769-.146,1.543-.2,2.3a.46.46,0,0,1-.917-.066c.055-.766.124-1.548.2-2.327a.459.459,0,0,1,.5-.41l.022,0A.46.46,0,0,1,463.663,2237.987Zm-.358,5.522c-.02.78-.024,1.555-.014,2.3a.46.46,0,0,1-.92.013c-.01-.76-.005-1.547.015-2.339a.459.459,0,0,1,.47-.448.353.353,0,0,1,.057,0A.46.46,0,0,1,463.3,2243.509Z" fill="none" stroke="#54488b" stroke-miterlimit="10" stroke-width="0.5" stroke-dasharray="8 8 8"/>
          <path id="Path_40" data-name="Path 40" d="M436.81,2127.388m1.606,5.155.91-.13-1.059-2.647,4.627,4.232a.46.46,0,0,1,.354.545.464.464,0,0,1-.545.355c-.67-.142-1.34-.263-1.989-.36l-.265-.038a.459.459,0,1,1,.127-.91l.274.039C441.517,2133.729,442.2,2133.853,442.894,2134Zm-5.156-.224a.461.461,0,0,1-.486.433c-.776-.045-1.55-.074-2.3-.088a.46.46,0,1,1,.016-.919c.761.014,1.547.043,2.336.089a.3.3,0,0,1,.042,0A.461.461,0,0,1,437.738,2133.774Zm-10.463-1.141.881-.262,3.762,1.041a.46.46,0,0,1-.055.918c-.684-.041-1.364-.062-2.021-.062h-.267a.459.459,0,1,1-.009-.919h.276C430.517,2133.349,431.216,2133.37,431.918,2133.412Zm-5.132.539a.46.46,0,0,1-.416.5c-.775.07-1.545.156-2.288.253a.46.46,0,0,1-.119-.912c.755-.1,1.536-.185,2.323-.257l.042,0A.46.46,0,0,1,426.786,2133.951Zm-4.521-.206-.541,1.3a.46.46,0,0,1-.436.482c-.777.04-1.55.1-2.3.162a.459.459,0,0,1-.083-.915c.758-.069,1.543-.125,2.332-.165h.042A.461.461,0,0,1,421.724,2135.043Zm-10.525,0,.847-.356,3.853.629a.459.459,0,0,1,.481.436.465.465,0,0,1-.437.482c-.684.033-1.363.086-2.015.157l-.266.03a.46.46,0,1,1-.108-.913l.274-.031C414.5,2135.4,415.2,2135.347,415.9,2135.313Zm-5.044,1.09a.46.46,0,0,1-.36.542c-.762.154-1.518.322-2.247.5a.46.46,0,0,1-.217-.893c.74-.18,1.508-.351,2.282-.507l.042-.007A.461.461,0,0,1,410.855,2136.4Zm35.221-1.591c.733.22,1.482.464,2.228.729a.46.46,0,1,1-.307.867c-.731-.26-1.466-.5-2.184-.714a.46.46,0,0,1,.263-.882Zm5.282,1.921c.7.3,1.421.622,2.133.959a.459.459,0,0,1-.392.831c-.7-.332-1.409-.649-2.1-.944a.46.46,0,0,1,.248-.878A.477.477,0,0,1,451.358,2136.733Zm5.056,2.432c.68.363,1.367.745,2.043,1.134a.46.46,0,1,1-.459.8c-.667-.384-1.346-.761-2.017-1.12a.46.46,0,0,1,.284-.86A.481.481,0,0,1,456.414,2139.165Zm4.842,2.824c.654.414,1.312.842,1.956,1.275a.46.46,0,0,1-.512.763c-.637-.427-1.288-.851-1.935-1.26a.46.46,0,0,1,.491-.778Zm4.638,3.142q.936.676,1.874,1.389a.46.46,0,1,1-.556.732q-.929-.7-1.857-1.376a.459.459,0,0,1,.337-.827A.447.447,0,0,1,465.894,2145.131Zm4.443,3.406q.9.729,1.795,1.489a.46.46,0,1,1-.6.7q-.888-.753-1.779-1.476a.46.46,0,0,1,.579-.714Zm4.255,3.635q.861.774,1.718,1.575a.46.46,0,1,1-.628.672q-.851-.8-1.7-1.563a.46.46,0,0,1,.375-.8A.465.465,0,0,1,474.592,2152.172Zm4.071,3.837q.825.814,1.643,1.653a.46.46,0,1,1-.658.642q-.812-.832-1.631-1.641a.46.46,0,0,1,.392-.782A.451.451,0,0,1,478.663,2156.009Zm3.891,4.018q.788.852,1.567,1.725a.46.46,0,0,1-.686.612q-.772-.865-1.556-1.712a.46.46,0,0,1,.675-.625Zm3.709,4.186q.75.887,1.491,1.791a.459.459,0,1,1-.711.582q-.736-.9-1.481-1.778a.46.46,0,0,1,.7-.6Zm3.526,4.341q.713.918,1.413,1.852a.46.46,0,1,1-.736.552q-.7-.928-1.4-1.839a.46.46,0,0,1,.726-.565Zm3.338,4.487q.673.947,1.334,1.911a.46.46,0,1,1-.759.519q-.655-.957-1.325-1.9a.459.459,0,0,1,.109-.641.454.454,0,0,1,.334-.08A.462.462,0,0,1,493.127,2173.041Zm3.144,4.624q.631.976,1.251,1.966a.46.46,0,0,1-.78.487q-.615-.984-1.243-1.953a.46.46,0,1,1,.772-.5Zm2.943,4.755q.591,1,1.165,2.018a.459.459,0,1,1-.8.452q-.572-1.008-1.157-2a.459.459,0,1,1,.792-.466Zm2.734,4.879q.546,1.027,1.074,2.068a.46.46,0,1,1-.82.416q-.523-1.033-1.066-2.053a.46.46,0,1,1,.812-.431Zm2.517,5.006q.5,1.055.981,2.121a.46.46,0,0,1-.838.378q-.477-1.057-.974-2.106a.459.459,0,0,1,.219-.612.45.45,0,0,1,.264-.039A.46.46,0,0,1,504.465,2192.3Zm2.285,5.121q.451,1.078.88,2.165a.46.46,0,0,1-.856.338q-.424-1.08-.872-2.148a.459.459,0,0,1,.247-.6.453.453,0,0,1,.244-.031A.457.457,0,0,1,506.75,2197.426Zm2.037,5.223q.4,1.1.771,2.2a.46.46,0,1,1-.871.295q-.371-1.1-.765-2.187a.46.46,0,0,1,.276-.589.454.454,0,0,1,.224-.022A.459.459,0,0,1,508.787,2202.649Zm1.773,5.316q.342,1.116.658,2.24a.46.46,0,0,1-.885.249q-.315-1.115-.652-2.221a.459.459,0,0,1,.3-.574.465.465,0,0,1,.2-.015A.457.457,0,0,1,510.56,2207.965Zm1.495,5.4q.282,1.132.537,2.273a.46.46,0,1,1-.9.2q-.254-1.131-.532-2.252a.461.461,0,0,1,.335-.558.468.468,0,0,1,.179-.008A.461.461,0,0,1,512.055,2213.364Zm1.2,5.474q.218,1.146.409,2.3a.46.46,0,0,1-.907.151q-.189-1.141-.406-2.278a.461.461,0,0,1,.366-.538.442.442,0,0,1,.154,0A.46.46,0,0,1,513.256,2218.838Zm.891,5.534q.152,1.158.275,2.32a.46.46,0,1,1-.915.1q-.121-1.152-.272-2.3a.459.459,0,0,1,.4-.515.449.449,0,0,1,.128,0A.461.461,0,0,1,514.147,2224.372Zm.563,5.58q.081,1.166.134,2.335a.459.459,0,1,1-.918.041q-.053-1.158-.134-2.312a.46.46,0,0,1,.427-.491.545.545,0,0,1,.1,0A.463.463,0,0,1,514.71,2229.952Zm.221,5.608q.007.777,0,1.555l-.009.783a.46.46,0,1,1-.919-.013l.009-.779q.008-.769,0-1.537a.459.459,0,0,1,.456-.464.335.335,0,0,1,.072.005A.458.458,0,0,1,514.931,2235.56Zm-.1,5.6c-.033.81-.076,1.594-.127,2.331a.46.46,0,1,1-.917-.064c.05-.728.092-1.5.126-2.3a.459.459,0,0,1,.478-.44.353.353,0,0,1,.049.005A.458.458,0,0,1,514.834,2241.158Zm-.43,5.589c-.063.517-.131,1.03-.207,1.54-.04.259-.08.518-.123.777a.46.46,0,0,1-.521.38h-.007a.46.46,0,0,1-.379-.529q.063-.381.12-.764.113-.75.2-1.513a.46.46,0,0,1,.512-.4l.013,0A.46.46,0,0,1,514.4,2246.747Zm-1.316,4.979a.46.46,0,0,1,.342.553c-.179.756-.38,1.519-.6,2.267a.46.46,0,0,1-.883-.257c.214-.734.411-1.481.586-2.221a.461.461,0,0,1,.515-.349Zm-49.661-2.694c.057.777.132,1.547.221,2.289a.459.459,0,1,1-.912.111c-.092-.757-.168-1.542-.226-2.332a.46.46,0,0,1,.425-.492.429.429,0,0,1,.1,0A.459.459,0,0,1,463.427,2249.032Zm48.105,8.041a.46.46,0,0,1,.274.59c-.26.711-.547,1.444-.853,2.179a.46.46,0,1,1-.849-.353c.3-.723.583-1.444.838-2.142a.459.459,0,0,1,.5-.3A.415.415,0,0,1,511.532,2257.073Zm-47.383-2.575c.148.758.318,1.511.505,2.238a.46.46,0,1,1-.891.228c-.191-.744-.364-1.514-.516-2.289a.459.459,0,0,1,.362-.54.486.486,0,0,1,.157,0A.458.458,0,0,1,464.149,2254.5Zm45.25,7.718a.46.46,0,0,1,.207.617c-.348.7-.73,1.392-1.135,2.066a.46.46,0,0,1-.789-.473c.394-.654.764-1.328,1.1-2a.46.46,0,0,1,.479-.25A.451.451,0,0,1,509.4,2262.216Zm-43.816-2.409c.252.718.53,1.436.828,2.135a.46.46,0,1,1-.846.361c-.306-.718-.592-1.455-.85-2.192a.46.46,0,0,1,.282-.586.476.476,0,0,1,.22-.021A.461.461,0,0,1,465.583,2259.807Zm40.95,7.18a.459.459,0,0,1,.088.644c-.473.623-.976,1.235-1.5,1.82a.459.459,0,1,1-.686-.611c.5-.567.992-1.161,1.451-1.765a.458.458,0,0,1,.434-.177A.452.452,0,0,1,506.533,2266.987Zm-38.694-2.191c.378.652.792,1.3,1.23,1.922a.46.46,0,0,1-.753.528c-.453-.645-.881-1.314-1.272-1.988a.46.46,0,1,1,.795-.462Zm34.992,6.344a.459.459,0,0,1-.035.649c-.587.527-1.2,1.031-1.821,1.5a.46.46,0,1,1-.553-.734c.6-.453,1.193-.941,1.761-1.449a.457.457,0,0,1,.648.035Zm-31.773-1.925c.507.564,1.044,1.112,1.6,1.629a.46.46,0,0,1-.629.672c-.572-.536-1.127-1.1-1.652-1.687a.46.46,0,0,1,.684-.614Zm27.329,5.265a.46.46,0,0,1-.172.627c-.688.393-1.4.753-2.109,1.07a.46.46,0,0,1-.375-.84c.684-.3,1.367-.65,2.029-1.028a.458.458,0,0,1,.627.171Zm-23.272-1.6c.62.449,1.26.869,1.9,1.25a.46.46,0,0,1-.468.792c-.668-.4-1.333-.832-1.976-1.3a.46.46,0,1,1,.54-.744Zm18.194,3.86a.46.46,0,0,1-.321.565,21.008,21.008,0,0,1-2.317.5.46.46,0,0,1-.144-.909,19.951,19.951,0,0,0,2.216-.482.454.454,0,0,1,.19-.012A.461.461,0,0,1,493.309,2276.736Zm-13.445-1.182a21.337,21.337,0,0,0,2.14.761.46.46,0,0,1-.262.882,22.445,22.445,0,0,1-2.232-.794.46.46,0,0,1,.245-.88A.508.508,0,0,1,479.864,2275.554Zm7.958,2.043a.46.46,0,0,1-.465.455,19.886,19.886,0,0,1-2.368-.165h-.009a.46.46,0,0,1,.127-.911,18.93,18.93,0,0,0,2.26.158.459.459,0,0,1,.455.464Z" fill="none" stroke="#54488b" stroke-miterlimit="10" stroke-width="0.5" stroke-dasharray="8 8 8"/>
        </g>
        <path id="Path_52" data-name="Path 52" d="M541.172,2189.464l2.446-1.725.982.692c.762.483,3.593,1.914,3.97,2.078l.05.022-5,8.764.289.026a2.608,2.608,0,0,0,2.028-.705l2.153-2.04,1.492.649.053.023a.372.372,0,0,0,.49-.193l.505-1.16a.373.373,0,0,0-.193-.49l-.054-.023-.708-.308.979-.928,1.195.52.054.024a.373.373,0,0,0,.49-.193l.505-1.16a.373.373,0,0,0-.193-.49l-.054-.023-.412-.18.39-.37c3.29,1.431,7.39,3.212,7.434,3.228a4.235,4.235,0,0,0,3.074-.074,1.34,1.34,0,0,0,.74-1.7,4.26,4.26,0,0,0-2.045-2.291c-.04-.022-4.107-1.8-7.423-3.245l.005-.545.412.18.054.023a.373.373,0,0,0,.49-.193l.505-1.159a.373.373,0,0,0-.193-.49l-.054-.024-1.2-.52.012-1.345.707.307.053.024a.373.373,0,0,0,.49-.193l.505-1.16a.372.372,0,0,0-.193-.49l-.053-.023-1.49-.649.025-2.969a2.608,2.608,0,0,0-.866-1.964l-.216-.194-3.007,9.634-.212-.093c-.312-.135-3.176-1.186-4.066-1.419l-1.175-.245-.4-2.968a.918.918,0,0,0-.525-.708L544,2181l-.134-.059-.3-.128-.83,3.408-.908-.19-.6-.125h-.008a.837.837,0,0,0-.9.509l-.053.12a.837.837,0,0,0,.239,1.016l.008.006.5.35.759.534-1.926,2.927.355.155.077.033a.743.743,0,0,0,.078.029A.917.917,0,0,0,541.172,2189.464Z" transform="translate(0 -1339)" fill="#34a8e2"/>
        <path id="Path_53" data-name="Path 53" d="M434.473,2135.777l2.29-1.84,1,.617c.776.426,3.637,1.654,4.016,1.791l.051.019-4.357,8.89.285.008a2.564,2.564,0,0,0,1.943-.815l1.983-2.131,1.5.544.054.019a.365.365,0,0,0,.468-.219l.423-1.167a.365.365,0,0,0-.219-.468l-.054-.019-.713-.258.9-.969,1.2.436.054.019a.364.364,0,0,0,.467-.219l.423-1.166a.364.364,0,0,0-.219-.468l-.053-.02-.415-.15.359-.387c3.311,1.2,7.435,2.691,7.479,2.7a4.154,4.154,0,0,0,3.006-.262,1.312,1.312,0,0,0,.62-1.711,4.175,4.175,0,0,0-2.143-2.118c-.041-.019-4.133-1.508-7.47-2.722l-.029-.533.415.15.054.02a.367.367,0,0,0,.468-.219l.423-1.167a.365.365,0,0,0-.219-.468l-.054-.02-1.2-.436-.071-1.318.712.258.053.019a.365.365,0,0,0,.468-.219l.423-1.166a.365.365,0,0,0-.219-.468l-.053-.02-1.5-.543-.157-2.91a2.558,2.558,0,0,0-.97-1.87l-.223-.177-2.352,9.62-.214-.078c-.313-.113-3.183-.965-4.069-1.139l-1.166-.168-.578-2.881a.9.9,0,0,0-.558-.662l-.016-.006-.135-.049-.3-.107-.6,3.389-.9-.13-.592-.086h-.008a.822.822,0,0,0-.853.554l-.044.121a.822.822,0,0,0,.3.981l.009,0,.507.312.776.476-1.706,2.986.357.129.077.028a.642.642,0,0,0,.079.023A.894.894,0,0,0,434.473,2135.777Z" transform="translate(0 -1339)" fill="#34a8e2"/>
      </g>
      <g id="Group_838" data-name="Group 838">
        <g id="Group_24" data-name="Group 24" transform="translate(0 -1339)" opacity="0.22">
          <path id="Path_30" data-name="Path 30" d="M847.42,2170.123a.415.415,0,0,1-.329-.692q.684-.762,1.336-1.519a.415.415,0,1,1,.629.542q-.657.763-1.347,1.532A.413.413,0,0,1,847.42,2170.123Zm3.166-3.707a.424.424,0,0,1-.281-.092.416.416,0,0,1-.062-.584q.647-.8,1.254-1.587a.415.415,0,1,1,.657.507q-.612.8-1.265,1.6A.417.417,0,0,1,850.586,2166.416Z" fill="none" stroke="#54488b" stroke-miterlimit="10" stroke-width="0.5" stroke-dasharray="8 8 8"/>
          <g id="Group_791" data-name="Group 791">
            <g id="Group_812" data-name="Group 812">
              <g id="Group_811" data-name="Group 811">
                <g id="Group_810" data-name="Group 810">
                  <g id="Group_834" data-name="Group 834">
                    <g id="Group_833" data-name="Group 833">
                      <g id="Group_832" data-name="Group 832">
                        <g id="Group_831" data-name="Group 831">
                          <g id="Group_830" data-name="Group 830">
                            <g id="Group_829" data-name="Group 829">
                              <g id="Group_828" data-name="Group 828">
                                <g id="Group_827" data-name="Group 827">
                                  <g id="Group_826" data-name="Group 826">
                                    <g id="Group_825" data-name="Group 825">
                                      <g id="Group_824" data-name="Group 824">
                                        <g id="Group_823" data-name="Group 823">
                                          <g id="Group_822" data-name="Group 822">
                                            <g id="Group_821" data-name="Group 821">
                                              <g id="Group_820" data-name="Group 820">
                                                <g id="Group_819" data-name="Group 819">
                                                  <g id="Group_818" data-name="Group 818">
                                                    <g id="Group_817" data-name="Group 817">
                                                      <g id="Group_816" data-name="Group 816">
                                                        <g id="Group_815" data-name="Group 815">
                                                          <g id="Group_814" data-name="Group 814">
                                                            <g id="Group_813" data-name="Group 813">
                                                              <path id="Path_31" data-name="Path 31" d="M759.38,2213.031q-1.016.042-2.037.067a.415.415,0,1,1-.02-.83q1.012-.024,2.02-.067a.415.415,0,0,1,.037.83Zm2.839-.16a.415.415,0,0,1-.048-.829q1.008-.07,2.013-.16a.415.415,0,0,1,.074.827q-1.012.09-2.03.161Zm-7.708.253h-.022q-1.016,0-2.037-.029a.414.414,0,0,1-.4-.425.408.408,0,0,1,.425-.4q1.011.024,2.02.028a.415.415,0,0,1,.018.83Zm12.559-.7a.415.415,0,0,1-.067-.827q1.007-.117,2.008-.251a.41.41,0,0,1,.467.355.415.415,0,0,1-.356.467q-1.01.137-2.024.254Zm-17.427.567H749.6q-1.014-.054-2.032-.126a.416.416,0,1,1,.06-.829q1.009.074,2.015.126a.415.415,0,0,1,0,.829Zm22.256-1.235a.415.415,0,0,1-.085-.825q1-.16,2-.339a.415.415,0,1,1,.147.816q-1,.181-2.011.343Zm-27.112.866a.409.409,0,0,1-.062,0q-1.009-.1-2.023-.223a.415.415,0,1,1,.1-.825q1,.121,2.007.222a.415.415,0,0,1-.021.828Zm31.909-1.745a.416.416,0,0,1-.1-.822q.993-.2,1.979-.425a.415.415,0,0,1,.182.81q-.993.222-1.994.429A.441.441,0,0,1,776.7,2210.874Zm-36.742,1.14a.321.321,0,0,1-.082,0q-1.007-.15-2.015-.322a.415.415,0,1,1,.14-.818q1,.169,2,.319a.415.415,0,0,1-.041.825Zm41.5-2.223a.416.416,0,0,1-.121-.818q.985-.246,1.961-.508a.415.415,0,1,1,.215.8q-.982.264-1.974.511A.465.465,0,0,1,781.451,2209.791Zm-46.3,1.385a.436.436,0,0,1-.1-.008q-1-.2-2-.419a.415.415,0,0,1,.179-.811q.992.219,1.98.416a.415.415,0,0,1-.061.822Zm51.007-2.665a.415.415,0,0,1-.137-.813q.973-.285,1.938-.587a.415.415,0,0,1,.248.793q-.972.3-1.952.591A.373.373,0,0,1,786.157,2208.511Zm-55.764,1.595a.417.417,0,0,1-.121-.012q-.987-.248-1.974-.515a.415.415,0,1,1,.218-.8q.98.266,1.957.511a.415.415,0,0,1-.08.817Zm60.414-3.062a.415.415,0,0,1-.152-.808q.961-.324,1.914-.663a.415.415,0,1,1,.278.782q-.958.341-1.927.667A.4.4,0,0,1,790.807,2207.044Zm-65.114,1.765a.43.43,0,0,1-.141-.017q-.972-.294-1.947-.609a.415.415,0,1,1,.256-.79q.967.313,1.932.6a.415.415,0,0,1-.1.812ZM795.4,2205.4a.415.415,0,0,1-.168-.8q.948-.361,1.887-.737a.416.416,0,0,1,.308.772q-.945.376-1.9.74A.409.409,0,0,1,795.4,2205.4Zm4.523-1.821a.415.415,0,0,1-.182-.8q.936-.4,1.859-.806a.415.415,0,1,1,.336.759q-.93.412-1.871.812A.416.416,0,0,1,799.921,2203.574Zm-78.862,3.716a.418.418,0,0,1-.158-.023q-.958-.339-1.916-.7a.415.415,0,1,1,.292-.777q.951.357,1.9.693a.415.415,0,0,1-.119.806Zm83.316-5.7a.415.415,0,0,1-.2-.791q.919-.43,1.828-.873a.415.415,0,1,1,.364.746q-.913.446-1.84.879A.417.417,0,0,1,804.375,2201.587Zm-87.874,3.97a.4.4,0,0,1-.176-.03q-.941-.383-1.882-.786a.415.415,0,1,1,.327-.763q.934.4,1.868.78a.415.415,0,0,1-.137.8Zm92.254-6.117a.415.415,0,0,1-.21-.784q.9-.464,1.8-.938a.415.415,0,1,1,.389.733q-.9.479-1.807.944A.427.427,0,0,1,808.755,2199.44Zm-96.728,4.179a.41.41,0,0,1-.193-.037q-.921-.424-1.844-.869a.415.415,0,1,1,.36-.748q.917.441,1.831.862a.415.415,0,0,1-.154.792Zm101.029-6.48a.415.415,0,0,1-.222-.777q.887-.5,1.762-1a.416.416,0,1,1,.415.72q-.88.507-1.773,1A.417.417,0,0,1,813.056,2197.139Zm-105.413,4.346a.41.41,0,0,1-.209-.046q-.9-.464-1.806-.948a.415.415,0,1,1,.393-.731q.9.48,1.792.941a.415.415,0,0,1-.17.784Zm109.632-6.794a.415.415,0,0,1-.235-.77q.87-.525,1.728-1.059a.415.415,0,0,1,.439.7q-.862.537-1.738,1.066A.41.41,0,0,1,817.275,2194.691Zm-113.92,4.473a.416.416,0,0,1-.225-.053q-.882-.5-1.764-1.023a.415.415,0,0,1,.422-.715q.877.517,1.752,1.016a.415.415,0,0,1-.185.775Zm118.052-7.064a.415.415,0,0,1-.246-.763q.852-.555,1.69-1.118a.415.415,0,0,1,.463.69q-.843.565-1.7,1.124A.418.418,0,0,1,821.407,2192.1Zm-122.244,4.57a.414.414,0,0,1-.239-.062q-.858-.535-1.723-1.092a.415.415,0,1,1,.45-.7q.858.555,1.712,1.084a.416.416,0,0,1-.2.768Zm126.286-7.3a.415.415,0,0,1-.259-.755q.832-.583,1.651-1.174a.415.415,0,1,1,.486.673q-.822.594-1.66,1.181A.416.416,0,0,1,825.449,2189.369Zm-130.374,4.641a.417.417,0,0,1-.254-.072q-.838-.572-1.675-1.165a.415.415,0,0,1,.481-.677q.828.588,1.662,1.156a.415.415,0,0,1-.214.758ZM829.4,2186.5a.415.415,0,0,1-.27-.746q.815-.614,1.61-1.232a.415.415,0,0,1,.509.656q-.8.623-1.619,1.238A.41.41,0,0,1,829.4,2186.5Zm-138.286,4.668a.406.406,0,0,1-.269-.083q-.815-.613-1.616-1.246a.415.415,0,0,1,.514-.652q.8.627,1.6,1.235a.415.415,0,0,1-.231.746Zm142.13-7.672a.415.415,0,0,1-.281-.737q.792-.642,1.566-1.286a.415.415,0,0,1,.531.637q-.777.649-1.575,1.295A.416.416,0,0,1,833.239,2183.5ZM687.3,2188.129a.416.416,0,0,1-.288-.1c-.531-.45-1.05-.9-1.543-1.341a.415.415,0,1,1,.553-.619c.487.435,1,.881,1.527,1.326a.415.415,0,0,1-.249.731Zm149.678-7.767a.415.415,0,0,1-.293-.728q.769-.669,1.518-1.342a.415.415,0,1,1,.555.618q-.753.677-1.527,1.351A.417.417,0,0,1,836.974,2180.362Zm-153.3,4.5a.412.412,0,0,1-.309-.116c-.5-.48-.983-.966-1.448-1.447a.415.415,0,1,1,.6-.577c.459.474.94.954,1.429,1.427a.414.414,0,0,1,.01.587A.408.408,0,0,1,683.676,2184.86Zm156.916-7.77a.415.415,0,0,1-.3-.717q.745-.7,1.465-1.4a.415.415,0,1,1,.579.595q-.726.7-1.476,1.409A.406.406,0,0,1,840.592,2177.09Zm3.488-3.411a.415.415,0,0,1-.316-.706q.717-.729,1.405-1.458a.415.415,0,0,1,.6.571q-.693.734-1.416,1.469A.41.41,0,0,1,844.08,2173.679Zm-163.774,7.655a.416.416,0,0,1-.332-.14c-.455-.518-.9-1.044-1.323-1.565a.415.415,0,1,1,.645-.523c.416.512.854,1.03,1.3,1.54a.414.414,0,0,1-.291.688Zm-3.039-3.813a.415.415,0,0,1-.358-.173c-.4-.56-.79-1.131-1.154-1.7a.415.415,0,1,1,.7-.45c.357.554.738,1.114,1.131,1.663a.414.414,0,0,1-.1.579A.408.408,0,0,1,677.267,2177.521Zm-2.6-4.124a.417.417,0,0,1-.385-.216c-.329-.6-.641-1.222-.929-1.835a.415.415,0,0,1,.752-.352c.28.6.586,1.2.907,1.79a.415.415,0,0,1-.167.563A.411.411,0,0,1,674.671,2173.4Zm-2.025-4.432a.414.414,0,0,1-.408-.267c-.245-.645-.472-1.3-.677-1.94a.416.416,0,0,1,.792-.252c.2.628.422,1.266.661,1.9a.414.414,0,0,1-.368.562Zm-1.422-4.661a.416.416,0,0,1-.424-.322c-.155-.675-.289-1.354-.4-2.019a.415.415,0,1,1,.819-.134c.107.647.237,1.309.389,1.968a.415.415,0,0,1-.312.5A.366.366,0,0,1,671.224,2164.3Zm-.717-4.819a.415.415,0,0,1-.434-.387c-.009-.146-.018-.291-.024-.438-.026-.542-.036-1.09-.028-1.626a.411.411,0,0,1,.421-.409.415.415,0,0,1,.409.421c-.007.519,0,1.049.027,1.576.006.141.014.282.024.422a.416.416,0,0,1-.388.441Zm45.129-4.2a.414.414,0,0,1-.336-.145q-.657-.771-1.312-1.56a.415.415,0,1,1,.638-.531q.652.783,1.306,1.553a.415.415,0,0,1-.3.683Zm-44.972-.67a.47.47,0,0,1-.076,0,.417.417,0,0,1-.356-.468c.094-.688.219-1.373.374-2.035a.415.415,0,1,1,.808.188c-.148.637-.269,1.3-.359,1.959A.416.416,0,0,1,670.664,2154.62Zm41.845-3.074a.415.415,0,0,1-.339-.149q-.646-.776-1.307-1.551a.415.415,0,0,1,.631-.539q.664.777,1.314,1.558a.415.415,0,0,1-.3.681Zm-40.643-1.639a.4.4,0,0,1-.17-.027.416.416,0,0,1-.237-.538,20.006,20.006,0,0,1,.85-1.891.415.415,0,1,1,.738.379,19.32,19.32,0,0,0-.814,1.813A.413.413,0,0,1,671.866,2149.907Zm37.454-2.053a.412.412,0,0,1-.327-.135c-.471-.517-.937-1.011-1.384-1.47a.415.415,0,0,1,.595-.579c.454.465.925.967,1.4,1.49a.414.414,0,0,1-.286.694Zm-3.437-3.458a.414.414,0,0,1-.3-.107c-.506-.459-1.019-.9-1.525-1.309a.416.416,0,0,1,.524-.645c.517.419,1.041.87,1.558,1.339a.414.414,0,0,1,.029.586A.408.408,0,0,1,705.883,2144.4Zm-31.707,1.232a.415.415,0,0,1-.358-.656c.4-.555.829-1.1,1.286-1.624a.415.415,0,0,1,.625.546c-.439.5-.855,1.028-1.235,1.56A.415.415,0,0,1,674.176,2145.628Zm27.88-4.248a.418.418,0,0,1-.251-.07c-.561-.377-1.134-.733-1.7-1.057a.415.415,0,1,1,.412-.721c.585.334,1.174.7,1.752,1.088a.416.416,0,0,1-.212.76Zm-24.607.649a.415.415,0,0,1-.291-.73,17.341,17.341,0,0,1,1.658-1.258.415.415,0,1,1,.462.69,16.162,16.162,0,0,0-1.578,1.2A.423.423,0,0,1,677.449,2142.029Zm20.323-2.961a.4.4,0,0,1-.172-.029c-.612-.242-1.246-.457-1.884-.639a.415.415,0,1,1,.227-.8c.665.189,1.325.413,1.962.665a.415.415,0,0,1-.133.8Zm-16.224.349a.415.415,0,0,1-.192-.792,19.55,19.55,0,0,1,1.93-.762.415.415,0,1,1,.263.787,19.077,19.077,0,0,0-1.848.73A.391.391,0,0,1,681.548,2139.417Zm11.52-1.59a.539.539,0,0,1-.079,0c-.653-.093-1.32-.156-1.983-.187a.415.415,0,0,1-.395-.434.407.407,0,0,1,.434-.395c.688.032,1.382.1,2.061.193a.415.415,0,0,1-.038.826Zm-6.879.136a.415.415,0,0,1-.094-.823c.674-.125,1.365-.217,2.052-.276a.409.409,0,0,1,.45.377.416.416,0,0,1-.378.45c-.662.057-1.325.146-1.974.265A.365.365,0,0,1,686.189,2137.963Z" fill="none" stroke="#54488b" stroke-miterlimit="10" stroke-width="0.5" stroke-dasharray="8 8 8"/>
                                                            </g>
                                                          </g>
                                                        </g>
                                                      </g>
                                                    </g>
                                                  </g>
                                                </g>
                                              </g>
                                            </g>
                                          </g>
                                        </g>
                                      </g>
                                    </g>
                                  </g>
                                </g>
                              </g>
                            </g>
                          </g>
                        </g>
                      </g>
                    </g>
                  </g>
                </g>
              </g>
            </g>
          </g>
          <path id="Path_32" data-name="Path 32" d="M718.256,2158.224a.411.411,0,0,1-.321-.129q-.359-.376-.713-.764a.749.749,0,0,1,1.383-.575q.02.516.045,1.033a.413.413,0,0,1-.251.4A.406.406,0,0,1,718.256,2158.224Z" fill="none" stroke="#54488b" stroke-miterlimit="10" stroke-width="0.5" stroke-dasharray="8 8 8"/>
          <path id="Path_33" data-name="Path 33" d="M718.151,2154.253h-.02a.415.415,0,0,1-.416-.414c0-.707.008-1.416.028-2.109a.415.415,0,1,1,.83.024c-.02.684-.029,1.385-.027,2.083A.416.416,0,0,1,718.151,2154.253Zm.177-5.026a.3.3,0,0,1-.051,0,.415.415,0,0,1-.383-.445c.054-.713.121-1.42.2-2.1a.415.415,0,1,1,.825.094c-.077.672-.142,1.368-.2,2.071A.415.415,0,0,1,718.328,2149.227Z" fill="none" stroke="#54488b" stroke-miterlimit="10" stroke-width="0.5" stroke-dasharray="8 8 8"/>
          <g id="Group_809" data-name="Group 809">
            <g id="Group_808" data-name="Group 808">
              <g id="Group_807" data-name="Group 807">
                <g id="Group_806" data-name="Group 806">
                  <g id="Group_805" data-name="Group 805">
                    <g id="Group_804" data-name="Group 804">
                      <g id="Group_803" data-name="Group 803">
                        <g id="Group_802" data-name="Group 802">
                          <g id="Group_801" data-name="Group 801">
                            <g id="Group_800" data-name="Group 800">
                              <g id="Group_799" data-name="Group 799">
                                <g id="Group_798" data-name="Group 798">
                                  <g id="Group_797" data-name="Group 797">
                                    <g id="Group_796" data-name="Group 796">
                                      <g id="Group_795" data-name="Group 795">
                                        <g id="Group_794" data-name="Group 794">
                                          <g id="Group_793" data-name="Group 793">
                                            <g id="Group_792" data-name="Group 792">
                                              <g id="Group_835" data-name="Group 835">
                                                <g id="Group_837" data-name="Group 837">
                                                  <g id="Group_836" data-name="Group 836">
                                                    <path id="Path_34" data-name="Path 34" d="M661.448,2263.488a.415.415,0,0,1-.05-.828c.686-.05,1.382-.114,2.071-.191a.415.415,0,0,1,.093.825c-.7.078-1.408.144-2.1.194Zm-2.931.125H658.5c-.706.01-1.417,0-2.113-.016a.415.415,0,1,1,.024-.829c.684.019,1.384.024,2.077.015a.415.415,0,0,1,.026.829Zm7.918-.759a.415.415,0,0,1-.1-.822c.67-.134,1.348-.292,2.016-.469a.415.415,0,1,1,.213.8c-.684.182-1.379.344-2.066.481A.432.432,0,0,1,666.435,2262.854Zm-12.942.575a.357.357,0,0,1-.056,0c-.7-.061-1.407-.138-2.1-.228a.415.415,0,0,1,.107-.823c.682.088,1.377.164,2.066.224a.415.415,0,0,1-.016.828Zm-4.98-.689a.369.369,0,0,1-.1-.007c-.69-.131-1.386-.278-2.067-.438a.415.415,0,0,1,.19-.808c.669.156,1.353.3,2.033.43a.415.415,0,0,1-.057.823Zm22.766-1.239a.415.415,0,0,1-.162-.8c.652-.236,1.3-.493,1.925-.764a.415.415,0,0,1,.33.762c-.641.278-1.3.541-1.972.783A.435.435,0,0,1,671.279,2261.5Zm-27.654.054a.415.415,0,0,1-.138-.017c-.665-.2-1.342-.413-2.013-.641a.415.415,0,0,1,.268-.786c.66.225,1.326.437,1.981.631a.415.415,0,0,1-.1.813Zm32.24-2.113a.415.415,0,0,1-.22-.779c.611-.334,1.209-.687,1.779-1.052a.415.415,0,1,1,.447.7c-.585.375-1.2.739-1.828,1.081A.412.412,0,0,1,675.865,2259.442Zm-36.986.447a.414.414,0,0,1-.176-.03c-.652-.266-1.3-.549-1.94-.84a.415.415,0,1,1,.346-.754c.624.286,1.266.564,1.908.825a.415.415,0,0,1-.138.8Zm41.172-3.221a.415.415,0,0,1-.28-.739c.544-.436,1.066-.892,1.551-1.355a.415.415,0,1,1,.573.6c-.5.48-1.042.952-1.6,1.4A.414.414,0,0,1,680.051,2256.668Zm-45.726,1.087a.411.411,0,0,1-.215-.049c-.629-.335-1.249-.684-1.844-1.038a.415.415,0,1,1,.424-.714c.584.347,1.193.691,1.811,1.02a.415.415,0,0,1-.176.781Zm49.283-4.629a.409.409,0,0,1-.277-.089.415.415,0,0,1-.068-.583,18.221,18.221,0,0,0,1.181-1.673.415.415,0,1,1,.7.438,18.868,18.868,0,0,1-1.234,1.75A.413.413,0,0,1,683.608,2253.126Zm2.531-4.322a.4.4,0,0,1-.172-.029.414.414,0,0,1-.233-.539,15.372,15.372,0,0,0,.618-1.942.415.415,0,0,1,.806.2,16.2,16.2,0,0,1-.652,2.05A.418.418,0,0,1,686.139,2248.8Zm2.5-3.266-.249.011a.415.415,0,0,1-.032-.83l.241-.011c.592-.028,1.205-.076,1.82-.143a.42.42,0,0,1,.457.368.414.414,0,0,1-.367.457C689.874,2245.459,689.244,2245.509,688.636,2245.538Zm-3.177-.014h-.038c-.713-.031-1.422-.075-2.107-.131a.415.415,0,0,1,.068-.828c.674.056,1.372.1,2.074.129a.415.415,0,0,1,0,.83Zm7.92-.571a.416.416,0,0,1-.1-.823c.665-.127,1.347-.277,2.027-.444a.415.415,0,1,1,.2.806c-.693.171-1.388.323-2.067.454A.4.4,0,0,1,693.379,2244.953Zm-12.924.109a.45.45,0,0,1-.081,0c-.709-.1-1.41-.227-2.085-.363a.415.415,0,1,1,.164-.814c.661.134,1.348.253,2.042.356a.415.415,0,0,1-.04.825Zm17.8-1.347a.415.415,0,0,1-.143-.811c.649-.2,1.313-.424,1.973-.658a.415.415,0,1,1,.278.782c-.67.238-1.345.463-2,.669A.385.385,0,0,1,698.252,2243.715Zm-11.024.2h-.051a.416.416,0,0,1-.384-.445,19.6,19.6,0,0,0,.041-2.051.432.432,0,0,1,.4-.427.415.415,0,0,1,.427.4,20.409,20.409,0,0,1-.043,2.137A.414.414,0,0,1,687.228,2243.913Zm-11.683.086a.379.379,0,0,1-.137-.016c-.692-.2-1.369-.431-2.015-.674a.415.415,0,0,1,.292-.777c.627.236,1.286.456,1.958.655a.415.415,0,0,1-.1.812Zm27.436-2a.415.415,0,0,1-.178-.8c.635-.262,1.279-.539,1.913-.824a.415.415,0,1,1,.34.757c-.642.289-1.293.57-1.937.835A.422.422,0,0,1,702.981,2242Zm-32.1.15a.4.4,0,0,1-.21-.046c-.639-.33-1.261-.689-1.847-1.067a.415.415,0,1,1,.45-.7c.564.363,1.162.709,1.778,1.028a.415.415,0,0,1-.171.783Zm36.679-2.238a.415.415,0,0,1-.206-.786c.619-.309,1.242-.632,1.853-.958a.415.415,0,1,1,.391.732c-.617.33-1.247.656-1.873.968A.407.407,0,0,1,707.558,2239.911Zm-20.566-1.012a.416.416,0,0,1-.43-.351c-.1-.662-.237-1.344-.4-2.025a.415.415,0,1,1,.808-.191c.166.7.3,1.405.41,2.088a.414.414,0,0,1-.346.474Zm24.994-1.38a.415.415,0,0,1-.229-.773q.894-.521,1.792-1.07a.415.415,0,0,1,.434.708q-.906.555-1.809,1.079A.407.407,0,0,1,711.986,2237.519Zm-45.262,1.823a.412.412,0,0,1-.293-.1,19.8,19.8,0,0,1-1.533-1.491.415.415,0,0,1,.61-.563,19.23,19.23,0,0,0,1.469,1.429.415.415,0,0,1-.253.727Zm49.541-4.471a.415.415,0,0,1-.248-.761q.865-.569,1.732-1.165a.415.415,0,1,1,.471.683q-.873.6-1.747,1.176A.412.412,0,0,1,716.265,2234.871Zm-52.866.717a.415.415,0,0,1-.363-.18c-.39-.571-.757-1.164-1.121-1.814a.415.415,0,0,1,.724-.406c.352.628.706,1.2,1.083,1.751a.415.415,0,0,1-.323.649Zm22.377-1.566a.416.416,0,0,1-.413-.281c-.218-.644-.462-1.3-.725-1.94a.415.415,0,1,1,.769-.314c.269.659.519,1.328.742,1.987a.414.414,0,0,1-.259.526A.419.419,0,0,1,685.776,2234.022ZM720.4,2232a.416.416,0,0,1-.266-.75q.837-.613,1.673-1.25a.415.415,0,1,1,.5.66q-.842.642-1.686,1.26A.41.41,0,0,1,720.4,2232Zm3.988-3.068a.415.415,0,0,1-.281-.738q.809-.653,1.614-1.327a.415.415,0,0,1,.533.636q-.812.68-1.625,1.337A.415.415,0,0,1,724.387,2228.934Zm-63.185,2.158a.413.413,0,0,1-.421-.31,12.558,12.558,0,0,1-.359-2.135.415.415,0,0,1,.38-.448.41.41,0,0,1,.447.38,11.816,11.816,0,0,0,.336,1.995.415.415,0,0,1-.3.505A.366.366,0,0,1,661.2,2231.092Zm22.622-1.7a.416.416,0,0,1-.39-.228c-.309-.61-.64-1.223-.986-1.823a.415.415,0,1,1,.719-.415c.354.613.693,1.24,1.008,1.864a.415.415,0,0,1-.351.6Zm44.407-3.7a.415.415,0,0,1-.3-.726q.779-.688,1.552-1.4a.415.415,0,1,1,.561.611q-.778.714-1.563,1.409A.419.419,0,0,1,728.231,2225.686Zm-67.273.416a.384.384,0,0,1-.083-.005.413.413,0,0,1-.347-.473,12.135,12.135,0,0,1,.516-2.1.415.415,0,1,1,.785.269,11.386,11.386,0,0,0-.481,1.962A.414.414,0,0,1,660.958,2226.1Zm20.3-1.038a.412.412,0,0,1-.362-.179c-.113-.163-.225-.324-.339-.484-.279-.391-.581-.78-.9-1.154a.415.415,0,0,1,.633-.538c.333.393.65.8.943,1.21.116.163.231.329.346.5a.415.415,0,0,1-.107.577A.408.408,0,0,1,681.263,2225.064Zm50.664-2.792a.408.408,0,0,1-.318-.126.414.414,0,0,1,.01-.587q.75-.723,1.491-1.464a.415.415,0,0,1,.587.587q-.747.747-1.5,1.474A.412.412,0,0,1,731.927,2222.272Zm3.547-3.569a.415.415,0,0,1-.321-.7q.719-.754,1.427-1.526a.415.415,0,1,1,.612.562q-.714.777-1.437,1.536A.413.413,0,0,1,735.474,2218.7Zm-57.55,2.618a.413.413,0,0,1-.288-.1A16.722,16.722,0,0,0,676,2220a.415.415,0,0,1,.454-.7,17.529,17.529,0,0,1,1.719,1.284.415.415,0,0,1-.248.732Zm-15.147.138a.415.415,0,0,1-.358-.655,9.031,9.031,0,0,1,1.467-1.625.415.415,0,1,1,.543.627,8.256,8.256,0,0,0-1.333,1.478A.413.413,0,0,1,662.777,2221.459Zm10.873-2.749a.4.4,0,0,1-.172-.029,11.476,11.476,0,0,0-1.935-.58.415.415,0,1,1,.165-.814,12.306,12.306,0,0,1,2.075.622.415.415,0,0,1-.133.8Zm65.216-3.724a.415.415,0,0,1-.333-.688q.687-.785,1.362-1.585a.415.415,0,1,1,.634.535q-.68.805-1.37,1.6A.415.415,0,0,1,738.866,2214.986Zm-72.175,3.442a.415.415,0,0,1-.163-.8,8.988,8.988,0,0,1,2.136-.5.423.423,0,0,1,.457.369.416.416,0,0,1-.369.457,8.071,8.071,0,0,0-1.938.449A.417.417,0,0,1,666.691,2218.428Zm75.405-7.3a.415.415,0,0,1-.344-.674q.652-.814,1.293-1.643a.415.415,0,1,1,.656.509q-.644.832-1.3,1.653A.42.42,0,0,1,742.1,2211.129Zm3.062-3.992a.419.419,0,0,1-.265-.08.414.414,0,0,1-.089-.58q.617-.843,1.22-1.7a.415.415,0,1,1,.678.478q-.608.861-1.228,1.708A.417.417,0,0,1,745.158,2207.137Zm2.886-4.122a.411.411,0,0,1-.249-.069.416.416,0,0,1-.116-.576q.579-.867,1.143-1.748a.416.416,0,0,1,.7.448q-.568.886-1.152,1.76A.411.411,0,0,1,748.044,2203.015Zm2.7-4.255a.411.411,0,0,1-.234-.059.417.417,0,0,1-.142-.57q.542-.9,1.066-1.8a.415.415,0,0,1,.719.415q-.528.915-1.073,1.818A.416.416,0,0,1,750.747,2198.76Zm2.505-4.378a.424.424,0,0,1-.217-.05.415.415,0,0,1-.167-.562q.5-.921.977-1.851a.416.416,0,0,1,.739.38q-.484.938-.986,1.866A.417.417,0,0,1,753.252,2194.382Zm2.292-4.49a.415.415,0,0,1-.394-.594q.453-.942.885-1.9a.415.415,0,1,1,.756.344q-.437.96-.892,1.911A.416.416,0,0,1,755.544,2189.892Zm2.064-4.6a.4.4,0,0,1-.18-.032.416.416,0,0,1-.223-.543q.4-.965.787-1.937a.415.415,0,0,1,.773.3q-.387.981-.793,1.953A.416.416,0,0,1,757.608,2185.295Zm1.823-4.7a.423.423,0,0,1-.16-.023.416.416,0,0,1-.251-.531q.351-.983.681-1.976a.415.415,0,1,1,.788.262q-.333,1-.687,1.993A.414.414,0,0,1,759.431,2180.6Zm1.565-4.787a.409.409,0,0,1-.138-.017.415.415,0,0,1-.28-.516q.3-1,.57-2.01a.415.415,0,1,1,.8.217q-.274,1.018-.575,2.029A.415.415,0,0,1,761,2175.812Zm1.294-4.869a.459.459,0,0,1-.115-.01.417.417,0,0,1-.31-.5q.238-1.017.452-2.041a.415.415,0,0,1,.813.17q-.216,1.033-.456,2.06A.416.416,0,0,1,762.29,2170.943Zm1-4.938a.459.459,0,0,1-.091,0,.416.416,0,0,1-.339-.48q.177-1.029.329-2.065a.415.415,0,1,1,.822.12q-.153,1.047-.332,2.086A.416.416,0,0,1,763.294,2166Zm.7-4.994a.364.364,0,0,1-.065,0,.414.414,0,0,1-.368-.457q.075-.69.138-1.382l.062-.7a.416.416,0,0,1,.828.071l-.063.7q-.065.7-.14,1.4A.415.415,0,0,1,764,2161.011Zm.416-5.017a.277.277,0,0,1-.045,0,.416.416,0,0,1-.39-.439c.042-.723.074-1.424.1-2.082a.415.415,0,0,1,.83.026c-.021.666-.053,1.374-.1,2.1A.416.416,0,0,1,764.412,2155.994Zm.116-5.027h-.012a.416.416,0,0,1-.424-.407c-.008-.463-.023-.921-.045-1.377-.012-.233-.025-.465-.04-.7a.417.417,0,0,1,.388-.441h.007a.415.415,0,0,1,.434.388c.015.237.028.473.04.71q.033.7.047,1.4A.416.416,0,0,1,764.528,2150.967Zm-.373-5.012a.416.416,0,0,1-.431-.36c-.09-.681-.2-1.37-.326-2.049a.415.415,0,1,1,.816-.151c.129.692.241,1.4.333,2.09a.415.415,0,0,1-.357.466Zm-45.213-1.72a.357.357,0,0,1-.092-.006.414.414,0,0,1-.337-.48c.123-.705.262-1.4.412-2.075a.415.415,0,0,1,.81.182c-.147.659-.284,1.344-.4,2.036A.415.415,0,0,1,718.942,2144.235Zm44.249-3.215a.415.415,0,0,1-.422-.312c-.166-.65-.355-1.324-.56-2a.415.415,0,1,1,.8-.241c.209.688.4,1.373.57,2.035a.415.415,0,0,1-.3.506A.4.4,0,0,1,763.191,2141.02Zm-43.1-1.678a.428.428,0,0,1-.14-.018.415.415,0,0,1-.277-.517c.207-.683.432-1.36.67-2.011a.415.415,0,0,1,.78.286c-.233.636-.454,1.3-.655,1.965A.417.417,0,0,1,720.094,2139.342Zm41.6-3.121a.416.416,0,0,1-.408-.268c-.242-.637-.514-1.276-.808-1.9a.415.415,0,0,1,.751-.354c.3.642.584,1.3.833,1.959a.414.414,0,0,1-.241.535A.4.4,0,0,1,761.7,2136.221Zm-39.813-1.576a.422.422,0,0,1-.2-.038.415.415,0,0,1-.2-.552c.3-.639.622-1.275.961-1.893a.416.416,0,0,1,.728.4c-.331.6-.646,1.221-.937,1.843A.415.415,0,0,1,721.882,2134.645Zm37.6-2.934a.415.415,0,0,1-.375-.2c-.357-.585-.742-1.162-1.144-1.717a.415.415,0,1,1,.672-.487c.415.572.812,1.168,1.181,1.77a.416.416,0,0,1-.334.632ZM724.4,2130.3a.415.415,0,0,1-.356-.658c.413-.571.858-1.133,1.323-1.672a.415.415,0,0,1,.628.543c-.449.521-.879,1.064-1.278,1.615A.415.415,0,0,1,724.4,2130.3Zm32.068-2.607a.411.411,0,0,1-.327-.135c-.464-.508-.952-1-1.451-1.46a.415.415,0,1,1,.563-.61c.516.477,1.021.985,1.5,1.511a.415.415,0,0,1-.287.694Zm-28.72-1.136a.415.415,0,0,1-.3-.722c.523-.477,1.074-.936,1.636-1.366a.415.415,0,1,1,.5.66c-.543.415-1.075.859-1.582,1.32A.418.418,0,0,1,727.747,2126.556Zm24.969-2.2a.415.415,0,0,1-.26-.077c-.561-.4-1.143-.771-1.73-1.107a.416.416,0,0,1,.413-.721c.61.349,1.215.737,1.8,1.152a.415.415,0,0,1-.221.753Zm-20.923-.776a.416.416,0,0,1-.229-.774c.62-.36,1.256-.693,1.892-.987a.415.415,0,1,1,.349.754c-.612.283-1.226.6-1.823.951A.413.413,0,0,1,731.793,2123.581Zm16.515-1.618a.419.419,0,0,1-.17-.028,18,18,0,0,0-1.947-.633.415.415,0,1,1,.212-.8,18.853,18.853,0,0,1,2.036.662.415.415,0,0,1-.131.8Zm-11.919-.4a.415.415,0,0,1-.14-.812,20.063,20.063,0,0,1,2.077-.513.415.415,0,0,1,.155.816,19.4,19.4,0,0,0-1.991.491A.467.467,0,0,1,736.389,2121.565Zm7.042-.759a.384.384,0,0,1-.058,0,17.166,17.166,0,0,0-2.045-.062.415.415,0,0,1-.031-.83h.008a17.994,17.994,0,0,1,2.143.065.415.415,0,0,1-.017.828Z" fill="none" stroke="#54488b" stroke-miterlimit="10" stroke-width="0.5" stroke-dasharray="8 8 8"/>
                                                  </g>
                                                </g>
                                              </g>
                                            </g>
                                          </g>
                                        </g>
                                      </g>
                                    </g>
                                  </g>
                                </g>
                              </g>
                            </g>
                          </g>
                        </g>
                      </g>
                    </g>
                  </g>
                </g>
              </g>
            </g>
          </g>
          <path id="Path_35" data-name="Path 35" d="M630.075,2255.16a.413.413,0,0,1-.259-.076c-.488-.346-.773-.57-.848-.631l.257-.325-.316-.271a.418.418,0,0,1,.578-.052c.051.041.327.261.809.6a.415.415,0,0,1-.221.753Z" fill="none" stroke="#54488b" stroke-miterlimit="10" stroke-width="0.5" stroke-dasharray="8 8 8"/>
        </g>
        <g id="Group_790" data-name="Group 790">
          <path id="Path_54" data-name="Path 54" d="M794.888,2209.157l.358-2.9,1.143-.256c.849-.234,3.741-1.342,4.106-1.506l.048-.022,3.055,9.359.208-.192a2.544,2.544,0,0,0,.821-1.928l-.062-2.894,1.447-.652.051-.023a.362.362,0,0,0,.182-.48l-.507-1.126a.363.363,0,0,0-.48-.182l-.052.024-.687.309-.029-1.315,1.16-.523.052-.023a.365.365,0,0,0,.182-.481l-.507-1.125a.364.364,0,0,0-.481-.182l-.051.023-.4.181-.011-.525c3.191-1.44,7.167-3.234,7.207-3.255a4.131,4.131,0,0,0,1.963-2.27,1.309,1.309,0,0,0-.744-1.65,4.149,4.149,0,0,0-3-.025c-.043.015-3.993,1.789-7.214,3.236l-.39-.361.4-.18.052-.023a.364.364,0,0,0,.182-.481l-.507-1.125a.363.363,0,0,0-.481-.182l-.051.023-1.16.523-.965-.891.686-.309.052-.023a.363.363,0,0,0,.182-.481l-.507-1.125a.362.362,0,0,0-.48-.182l-.052.023-1.446.652-2.129-1.966a2.544,2.544,0,0,0-1.988-.662l-.282.029,4.99,8.491-.206.092c-.3.136-2.939,1.518-3.691,2.008l-.948.688-2.41-1.654a.893.893,0,0,0-.855-.086l-.016.007-.131.059-.288.132,1.918,2.834-.732.532-.481.349-.007,0a.816.816,0,0,0-.224.986l.052.117a.818.818,0,0,0,.891.494l.01,0,.578-.13.883-.2.853,3.311.344-.155.074-.034a.572.572,0,0,0,.073-.038A.892.892,0,0,0,794.888,2209.157Z" transform="translate(0 -1339)" fill="#34a8e2"/>
        </g>
      </g>
    </g>
  </g>
</svg>
