<svg xmlns="http://www.w3.org/2000/svg" width="58.906" height="17.724" viewBox="0 0 58.906 17.724">
  <g id="Group_19" data-name="Group 19" transform="translate(-339.913 -3529.676)">
    <path id="Path_21" data-name="Path 21" d="M358.293,3531.794a1.579,1.579,0,1,1,.46,1.121A1.525,1.525,0,0,1,358.293,3531.794Z" fill="#ff3797"/>
    <g id="Group_18" data-name="Group 18">
      <path id="Path_22" data-name="Path 22" d="M339.913,3529.676h2.72v5.84h.035a2.576,2.576,0,0,1,1.21-.9,4.7,4.7,0,0,1,1.591-.261,3.577,3.577,0,0,1,1.684.39,3.9,3.9,0,0,1,1.263,1.046,4.863,4.863,0,0,1,.8,1.5,5.6,5.6,0,0,1,.279,1.773,5.3,5.3,0,0,1-.306,1.83,4.143,4.143,0,0,1-.877,1.444,3.964,3.964,0,0,1-1.374.944,4.533,4.533,0,0,1-1.776.337,3.058,3.058,0,0,1-.891-.128,3.723,3.723,0,0,1-.771-.329,3.291,3.291,0,0,1-.616-.443,2.655,2.655,0,0,1-.425-.483h-.036v1.161h-2.507Zm2.507,9.3a2.28,2.28,0,0,0,.572,1.617,2.4,2.4,0,0,0,3.208,0,2.569,2.569,0,0,0,0-3.23,2.385,2.385,0,0,0-3.208,0A2.288,2.288,0,0,0,342.42,3538.981Z" fill="#fff"/>
      <path id="Path_23" data-name="Path 23" d="M351.087,3534.577h2.721v1.409h.035a3.315,3.315,0,0,1,1.037-1.223,2.629,2.629,0,0,1,1.507-.408q.24,0,.474.018a2.256,2.256,0,0,1,.43.071v2.49a4.52,4.52,0,0,0-.567-.138,3.566,3.566,0,0,0-.594-.048,2.847,2.847,0,0,0-1.232.221,1.665,1.665,0,0,0-.7.612,2.358,2.358,0,0,0-.319.935,8.76,8.76,0,0,0-.075,1.192v3.686h-2.721Z" fill="#fff"/>
      <rect id="Rectangle_70" data-name="Rectangle 70" width="2.72" height="8.818" transform="translate(358.514 3534.576)" fill="#fff"/>
      <path id="Path_24" data-name="Path 24" d="M363.185,3534.577H365.8v1.2h.035a2.057,2.057,0,0,1,.364-.51,2.793,2.793,0,0,1,.562-.452,3.2,3.2,0,0,1,.745-.327,3.082,3.082,0,0,1,.908-.129,3.729,3.729,0,0,1,1.671.319,2.44,2.44,0,0,1,.988.882,3.528,3.528,0,0,1,.478,1.325,10.231,10.231,0,0,1,.124,1.648v4.865h-2.721v-4.316c0-.253-.008-.518-.026-.793a2.425,2.425,0,0,0-.164-.753,1.355,1.355,0,0,0-.416-.563,1.272,1.272,0,0,0-.8-.221,1.7,1.7,0,0,0-.86.19,1.3,1.3,0,0,0-.5.51,2.061,2.061,0,0,0-.225.718,6.2,6.2,0,0,0-.054.833v4.4h-2.72Z" fill="#fff"/>
      <path id="Path_25" data-name="Path 25" d="M382.849,3542.65a4.469,4.469,0,0,1-1.17,3.452,5.122,5.122,0,0,1-3.837,1.3,10.214,10.214,0,0,1-2.321-.266,5.315,5.315,0,0,1-2.11-1.028l1.507-2.251a5.559,5.559,0,0,0,1.338.838,3.8,3.8,0,0,0,1.533.3,2.463,2.463,0,0,0,1.839-.607,1.53,1.53,0,0,0,.5-1.289v-.851h-.036a2.529,2.529,0,0,1-1.169.9,3.792,3.792,0,0,1-1.321.261,4.581,4.581,0,0,1-1.773-.332,3.916,3.916,0,0,1-1.369-.944,4.256,4.256,0,0,1-.881-1.445,4.872,4.872,0,0,1-.311-1.723,4.977,4.977,0,0,1,.28-1.68,4.721,4.721,0,0,1,.8-1.426,3.987,3.987,0,0,1,1.263-1.028,3.591,3.591,0,0,1,1.693-.39,4.115,4.115,0,0,1,1.922.456,3.136,3.136,0,0,1,.652.443,3.035,3.035,0,0,1,.439.483h.035v-1.249h2.5Zm-6.859-3.766a2,2,0,0,0,.164.779,2.14,2.14,0,0,0,.465.692,2.417,2.417,0,0,0,.691.482,2.1,2.1,0,0,0,1.711,0,2.379,2.379,0,0,0,.7-.482,2.14,2.14,0,0,0,.465-.692,2,2,0,0,0,.164-.779,1.7,1.7,0,0,0-.164-.736,2.324,2.324,0,0,0-.465-.647,2.364,2.364,0,0,0-.7-.483,2.1,2.1,0,0,0-1.711,0,2.4,2.4,0,0,0-.691.483,2.324,2.324,0,0,0-.465.647A1.7,1.7,0,0,0,375.99,3538.884Z" fill="#fff"/>
      <path id="Path_26" data-name="Path 26" d="M385.065,3529.676h2.72v13.718h-2.72Z" fill="#fff"/>
      <path id="Path_27" data-name="Path 27" d="M394.919,3544.476q-.275.708-.527,1.253a2.99,2.99,0,0,1-.642.918,2.532,2.532,0,0,1-.988.563,5.4,5.4,0,0,1-1.582.19,6.312,6.312,0,0,1-2.03-.328l.364-2.233a3.148,3.148,0,0,0,1.267.266,2.4,2.4,0,0,0,.745-.1,1.218,1.218,0,0,0,.482-.288,1.56,1.56,0,0,0,.315-.465c.083-.183.209-.476.381-.877l-3.864-8.889h2.942l2.269,5.822h.035l1.941-5.822h2.792Z" fill="#fff"/>
    </g>
  </g>
</svg>
