<svg xmlns="http://www.w3.org/2000/svg" width="18.804" height="10.323" viewBox="0 0 18.804 10.323">
  <g id="Group_21" data-name="Group 21" transform="translate(-4584.196 -7697.784)">
    <g id="Group_20" data-name="Group 20">
      <g id="Group_17" data-name="Group 17">
        <path id="Path_28" data-name="Path 28" d="M4597.77,7702.946a4.172,4.172,0,1,1-4.172-4.172A4.172,4.172,0,0,1,4597.77,7702.946Z" fill="#666"/>
        <path id="Path_29" data-name="Path 29" d="M4595.5,7702.946a1.9,1.9,0,1,1-1.9-1.9A1.9,1.9,0,0,1,4595.5,7702.946Z" fill="#5b5b5b"/>
        <path id="Path_30" data-name="Path 30" d="M4592.544,7700.39a1.3,1.3,0,1,1-1.3,1.3.951.951,0,0,1,0-.106.828.828,0,0,0,1.234-.721.806.806,0,0,0-.138-.456A1.3,1.3,0,0,1,4592.544,7700.39Z" fill="#fff"/>
      </g>
      <g id="Group_19" data-name="Group 19">
        <g id="Group_18" data-name="Group 18">
          <path id="Path_31" data-name="Path 31" d="M4593.6,7708.107c-5.094,0-9.127-4.674-9.3-4.873a.447.447,0,0,1,0-.577c.169-.2,4.2-4.873,9.3-4.873s9.127,4.674,9.3,4.873a.446.446,0,0,1,0,.577C4602.725,7703.433,4598.692,7708.107,4593.6,7708.107Zm-8.352-5.161c.955,1,4.372,4.27,8.352,4.27s7.4-3.267,8.352-4.27c-.954-1-4.372-4.271-8.352-4.271S4586.2,7701.943,4585.246,7702.946Z" fill="#5b5b5b"/>
        </g>
      </g>
    </g>
  </g>
</svg>
