<svg xmlns="http://www.w3.org/2000/svg" width="5.707" height="10.975" viewBox="0 0 5.707 10.975">
  <path id="Path_29" data-name="Path 29" d="M724.182,1363.923l.008-4.741h1.638a.291.291,0,0,0,.288-.257l.182-1.528a.291.291,0,0,0-.289-.325h-1.827v-1.279c0-.58.161-.975.992-.975h.77a.291.291,0,0,0,.291-.291v-1.289a.29.29,0,0,0-.291-.29H724.69a2.413,2.413,0,0,0-2.576,2.647v1.477h-1.23a.291.291,0,0,0-.291.292l.006,1.528a.292.292,0,0,0,.291.29h1.232l-.008,4.741Z" transform="translate(-720.593 -1352.948)" fill="#fff"/>
</svg>
