<svg xmlns="http://www.w3.org/2000/svg" width="17.304" height="18.17" viewBox="0 0 17.304 18.17">
  <g id="Group_23" data-name="Group 23" transform="translate(-4653.695 -7693.861)">
    <rect id="Rectangle_38" data-name="Rectangle 38" width="17.304" height="18.17" rx="2.377" transform="translate(4653.695 7693.861)" fill="#4d75a3"/>
    <path id="Path_32" data-name="Path 32" d="M4662.984,7707.694l.007-4.1h1.417a.251.251,0,0,0,.25-.222l.157-1.322a.252.252,0,0,0-.25-.281h-1.581v-1.106c0-.5.139-.844.859-.844h.666a.251.251,0,0,0,.251-.252v-1.115a.25.25,0,0,0-.251-.251h-1.086a2.087,2.087,0,0,0-2.228,2.29v1.278h-1.064a.252.252,0,0,0-.252.252l0,1.323a.252.252,0,0,0,.252.25h1.066l-.007,4.1Z" fill="#fff"/>
  </g>
</svg>
