<svg id="Component_1_1" data-name="Component 1 – 1" xmlns="http://www.w3.org/2000/svg" width="11.524" height="11.524" viewBox="0 0 11.524 11.524">
  <path id="Path_28" data-name="Path 28" d="M742.824,1352.753h-4.658a3.437,3.437,0,0,0-3.433,3.433v4.658a3.437,3.437,0,0,0,3.433,3.433h4.658a3.437,3.437,0,0,0,3.433-3.433v-4.658A3.437,3.437,0,0,0,742.824,1352.753Zm2.274,8.091a2.274,2.274,0,0,1-2.274,2.274h-4.658a2.274,2.274,0,0,1-2.274-2.274v-4.658a2.274,2.274,0,0,1,2.274-2.274h4.658a2.274,2.274,0,0,1,2.274,2.274Zm-4.6-5.31a2.981,2.981,0,1,0,2.981,2.981A2.984,2.984,0,0,0,740.495,1355.534Zm0,4.8a1.821,1.821,0,1,1,1.821-1.821A1.821,1.821,0,0,1,740.495,1360.336Zm3.7-4.779a.714.714,0,1,1-.715-.715A.715.715,0,0,1,744.2,1355.557Z" transform="translate(-734.733 -1352.753)" fill="#fff"/>
</svg>
