<svg xmlns="http://www.w3.org/2000/svg" width="24.561" height="21.069" viewBox="0 0 24.561 21.069">
  <g id="Group_54" data-name="Group 54" transform="translate(-788.581 -1764.931)">
    <g id="Group_53" data-name="Group 53">
      <g id="Group_52" data-name="Group 52">
        <g id="Group_51" data-name="Group 51">
          <path id="Path_42" data-name="Path 42" d="M797.639,1778.144h12.369c.7,0,1.082-.757,1.279-1.437l1.855-8.688H794.506l1.854,8.688C796.507,1777.4,796.935,1778.144,797.639,1778.144Zm10.415-2.218,1.28-6.025a.64.64,0,0,1,1.251.266l-1.279,6.024a.641.641,0,0,1-.626.507.607.607,0,0,1-.133-.014A.639.639,0,0,1,808.054,1775.926Zm-3.211.087.427-6.024a.64.64,0,1,1,1.276.091l-.427,6.024a.64.64,0,0,1-.637.595l-.046,0A.64.64,0,0,1,804.843,1776.013ZM801.6,1769.4a.642.642,0,0,1,.683.593l.426,6.024a.64.64,0,0,1-.593.684h-.046a.639.639,0,0,1-.637-.594l-.426-6.024A.639.639,0,0,1,801.6,1769.4Zm-4.14.013a.639.639,0,0,1,.759.492l1.279,6.025a.638.638,0,0,1-.493.758.607.607,0,0,1-.133.014.64.64,0,0,1-.625-.506l-1.28-6.025A.639.639,0,0,1,797.458,1769.409Z" fill="#ff3797"/>
          <path id="Path_43" data-name="Path 43" d="M798.449,1781.63a2.185,2.185,0,1,0,2.185,2.185A2.186,2.186,0,0,0,798.449,1781.63Zm0,3a.819.819,0,1,1,.819-.819A.819.819,0,0,1,798.449,1784.634Z" fill="#ff3797"/>
          <path id="Path_44" data-name="Path 44" d="M808.828,1781.63a2.185,2.185,0,1,0,2.185,2.185A2.185,2.185,0,0,0,808.828,1781.63Zm0,3a.819.819,0,1,1,.819-.819A.818.818,0,0,1,808.828,1784.634Z" fill="#ff3797"/>
        </g>
        <path id="Path_45" data-name="Path 45" d="M812.138,1780.739H795.6a1.266,1.266,0,0,1-1.239-.985l-3.094-13.342h-1.944a.74.74,0,1,1,0-1.481h2.111a1.266,1.266,0,0,1,1.239.983l3.094,13.343h16.372a.741.741,0,1,1,0,1.482Z" fill="#ff3797"/>
      </g>
    </g>
  </g>
</svg>
