<svg xmlns="http://www.w3.org/2000/svg" width="81.733" height="81.179" viewBox="0 0 81.733 81.179">
  <g id="Group_790" data-name="Group 790" transform="translate(-429.306 -3574.281)">
    <path id="Path_19" data-name="Path 19" d="M470.174,3574.281a40.59,40.59,0,1,0,40.865,40.59A40.73,40.73,0,0,0,470.174,3574.281Zm0,76.686a36.1,36.1,0,1,1,36.342-36.1A36.22,36.22,0,0,1,470.174,3650.967Z" fill="#fff"/>
    <path id="Path_20" data-name="Path 20" d="M462.152,3599.253l23.615,13.634a1.091,1.091,0,0,1,0,1.89l-23.615,13.634a1.091,1.091,0,0,1-1.637-.945V3600.2A1.091,1.091,0,0,1,462.152,3599.253Z" fill="#fff"/>
  </g>
</svg>
