<?xml version="1.0" encoding="UTF-8"?>
<svg width="28px" height="28px" viewBox="0 0 28 28" version="1.1" xmlns="http://www.w3.org/2000/svg" xmlns:xlink="http://www.w3.org/1999/xlink">
    <title>wall-clock</title>
    <g id="Page-1" stroke="none" stroke-width="1" fill="none" fill-rule="evenodd">
        <g id="main-app-4-copy-3" transform="translate(-42.000000, -150.000000)" fill="#FFFFFF" fill-rule="nonzero">
            <g id="wall-clock" transform="translate(42.000000, 150.000000)">
                <path d="M23.7237994,4.07031824 C21.0989381,1.44556554 17.6090935,0 13.8970588,0 C10.1850241,0 6.69517952,1.44556554 4.07031824,4.07031824 C1.44556554,6.69517952 0,10.1850241 0,13.8970588 C0,17.6090935 1.44556554,21.0989381 4.07031824,23.7237994 C6.69517952,26.3485521 10.1850241,27.7941176 13.8970588,27.7941176 C16.4383206,27.7941176 18.9248084,27.101599 21.0877553,25.7913669 C21.6006437,25.4806916 21.7645855,24.81309 21.4539103,24.3002559 C21.1432893,23.7873133 20.475579,23.6234257 19.9627993,23.934101 C18.1390817,25.0388086 16.041603,25.6227022 13.8970588,25.6227022 C7.43150649,25.6227022 2.17141544,20.3626112 2.17141544,13.8970588 C2.17141544,7.43150649 7.43150649,2.17141544 13.8970588,2.17141544 C20.3626112,2.17141544 25.6227022,7.43150649 25.6227022,13.8970588 C25.6227022,16.2090191 24.9351778,18.4594198 23.6343914,20.4050623 C23.3011334,20.9035107 23.4350554,21.5777895 23.9335581,21.9110475 C24.4320608,22.2443055 25.1062853,22.1103292 25.4395433,21.6118807 C26.9798911,19.3079004 27.7941176,16.6401537 27.7941176,13.8970588 C27.7941176,10.1850241 26.3485521,6.69517952 23.7237994,4.07031824 Z" id="Path"></path>
                <path d="M13.8970588,4.12568934 C13.2974224,4.12568934 12.8113511,4.61176068 12.8113511,5.21139706 L12.8113511,13.4473587 L8.83016946,17.4285403 C8.40614631,17.8525092 8.40614631,18.539925 8.83016946,18.9639482 C9.04215389,19.1759326 9.3199865,19.281952 9.59787339,19.281952 C9.87576028,19.281952 10.1535929,19.1759326 10.3655773,18.9639482 L14.6647628,14.6647628 C14.8683872,14.4611926 14.9827665,14.1849885 14.9827665,13.8970588 L14.9827665,5.21139706 C14.9827665,4.61176068 14.4966952,4.12568934 13.8970588,4.12568934 Z" id="Path"></path>
            </g>
        </g>
    </g>
</svg>