<svg width="11" height="8" viewBox="0 0 11 8" fill="none" xmlns="http://www.w3.org/2000/svg">
<path d="M11 3.96553C11 3.93844 11 3.90766 10.9988 3.87196C10.9975 3.77224 10.9951 3.6602 10.9926 3.54078C10.9828 3.19729 10.9656 2.85503 10.9386 2.53247C10.9018 2.08803 10.8478 1.71745 10.7741 1.43921C10.6964 1.14885 10.544 0.884024 10.3322 0.671218C10.1205 0.458411 9.85669 0.305074 9.5673 0.226531C9.21987 0.132964 8.53973 0.0751 7.58214 0.0393967C7.12667 0.0221606 6.63929 0.0110803 6.1519 0.00492452C5.98125 0.00246222 5.82288 0.00123115 5.68047 0H5.31953C5.17712 0.00123115 5.01875 0.00246222 4.8481 0.00492452C4.36071 0.0110803 3.87333 0.0221606 3.41786 0.0393967C2.46027 0.0763311 1.77891 0.134195 1.4327 0.226531C1.14322 0.304881 0.879349 0.458154 0.667543 0.67099C0.455737 0.883826 0.303433 1.14875 0.225893 1.43921C0.151004 1.71745 0.0982143 2.08803 0.0613839 2.53247C0.034375 2.85503 0.0171875 3.19729 0.00736605 3.54078C0.00368302 3.6602 0.00245534 3.77224 0.00122766 3.87196C0.00122766 3.90766 0 3.93844 0 3.96553V4.03447C0 4.06156 -1.87512e-08 4.09234 0.00122766 4.12804C0.00245534 4.22776 0.0049107 4.3398 0.00736605 4.45922C0.0171875 4.80271 0.034375 5.14497 0.0613839 5.46753C0.0982143 5.91197 0.152232 6.28255 0.225893 6.56079C0.383036 7.15051 0.844643 7.61588 1.4327 7.77347C1.77891 7.86704 2.46027 7.9249 3.41786 7.9606C3.87333 7.97784 4.36071 7.98892 4.8481 7.99507C5.01875 7.99754 5.17712 7.99877 5.31953 8H5.68047C5.82288 7.99877 5.98125 7.99754 6.1519 7.99507C6.63929 7.98892 7.12667 7.97784 7.58214 7.9606C8.53973 7.92367 9.22109 7.8658 9.5673 7.77347C10.1554 7.61588 10.617 7.15174 10.7741 6.56079C10.849 6.28255 10.9018 5.91197 10.9386 5.46753C10.9656 5.14497 10.9828 4.80271 10.9926 4.45922C10.9963 4.3398 10.9975 4.22776 10.9988 4.12804C10.9988 4.09234 11 4.06156 11 4.03447V3.96553ZM10.1161 4.02955C10.1161 4.0554 10.1161 4.08372 10.1148 4.11696C10.1136 4.21299 10.1112 4.31887 10.1087 4.43336C10.1001 4.76085 10.0829 5.08833 10.0571 5.39243C10.024 5.78886 9.97734 6.11388 9.91964 6.33179C9.84353 6.61619 9.62009 6.84149 9.33772 6.91659C9.07991 6.98553 8.43047 7.04093 7.54777 7.07418C7.10089 7.09141 6.61964 7.10249 6.13962 7.10865C5.97143 7.11111 5.81551 7.11234 5.67556 7.11234H5.32444L4.86038 7.10865C4.38036 7.10249 3.90033 7.09141 3.45223 7.07418C2.56953 7.0397 1.91886 6.98553 1.66228 6.91659C1.37991 6.84026 1.15647 6.61619 1.08036 6.33179C1.02266 6.11388 0.976004 5.78886 0.942857 5.39243C0.917076 5.08833 0.901116 4.76085 0.891295 4.43336C0.887612 4.31887 0.886384 4.21176 0.885156 4.11696C0.885156 4.08372 0.883929 4.05417 0.883929 4.02955V3.97045C0.883929 3.9446 0.883929 3.91628 0.885156 3.88304C0.886384 3.78701 0.888839 3.68113 0.891295 3.56664C0.899888 3.23915 0.917076 2.91166 0.942857 2.60757C0.976004 2.21114 1.02266 1.88612 1.08036 1.66821C1.15647 1.38381 1.37991 1.15851 1.66228 1.08341C1.92009 1.01447 2.56953 0.959064 3.45223 0.925823C3.89911 0.908587 4.38036 0.897507 4.86038 0.891351C5.02857 0.888889 5.18449 0.887658 5.32444 0.887658H5.67556L6.13962 0.891351C6.61964 0.897507 7.09966 0.908587 7.54777 0.925823C8.43047 0.960295 9.08114 1.01447 9.33772 1.08341C9.62009 1.15974 9.84353 1.38381 9.91964 1.66821C9.97734 1.88612 10.024 2.21114 10.0571 2.60757C10.0829 2.91166 10.0989 3.23915 10.1087 3.56664C10.1124 3.68113 10.1136 3.78824 10.1148 3.88304C10.1148 3.91628 10.1161 3.94583 10.1161 3.97045V4.02955ZM4.40737 5.64974L7.25558 3.98769L4.40737 2.35026V5.64974Z" fill="white"/>
</svg>
