<svg width="16" height="16" viewBox="0 0 16 16" fill="none" xmlns="http://www.w3.org/2000/svg">
<circle cx="8" cy="8" r="8" fill="white"/>
<path d="M13 7.97415C13 7.95383 13 7.93075 12.999 7.90397C12.998 7.82918 12.996 7.74515 12.994 7.65559C12.9859 7.39797 12.9719 7.14127 12.9498 6.89935C12.9196 6.56602 12.8754 6.28809 12.8152 6.07941C12.7516 5.86163 12.6269 5.66302 12.4536 5.50341C12.2804 5.34381 12.0646 5.22881 11.8278 5.1699C11.5435 5.09972 10.9871 5.05632 10.2036 5.02955C9.83091 5.01662 9.43214 5.00831 9.03337 5.00369C8.89375 5.00185 8.76417 5.00092 8.64766 5H8.35234C8.23583 5.00092 8.10625 5.00185 7.96663 5.00369C7.56786 5.00831 7.16908 5.01662 6.79643 5.02955C6.01295 5.05725 5.45547 5.10065 5.17221 5.1699C4.93536 5.22866 4.71947 5.34362 4.54617 5.50324C4.37288 5.66287 4.24826 5.86156 4.18482 6.07941C4.12355 6.28809 4.08036 6.56602 4.05022 6.89935C4.02812 7.14127 4.01406 7.39797 4.00603 7.65559C4.00301 7.74515 4.00201 7.82918 4.001 7.90397C4.001 7.93075 4 7.95383 4 7.97415V8.02585C4 8.04617 4 8.06925 4.001 8.09603C4.00201 8.17082 4.00402 8.25485 4.00603 8.34441C4.01406 8.60203 4.02812 8.85873 4.05022 9.10065C4.08036 9.43398 4.12455 9.71191 4.18482 9.92059C4.31339 10.3629 4.69107 10.7119 5.17221 10.8301C5.45547 10.9003 6.01295 10.9437 6.79643 10.9705C7.16908 10.9834 7.56786 10.9917 7.96663 10.9963C8.10625 10.9982 8.23583 10.9991 8.35234 11H8.64766C8.76417 10.9991 8.89375 10.9982 9.03337 10.9963C9.43214 10.9917 9.83091 10.9834 10.2036 10.9705C10.9871 10.9428 11.5445 10.8994 11.8278 10.8301C12.3089 10.7119 12.6866 10.3638 12.8152 9.92059C12.8765 9.71191 12.9196 9.43398 12.9498 9.10065C12.9719 8.85873 12.9859 8.60203 12.994 8.34441C12.997 8.25485 12.998 8.17082 12.999 8.09603C12.999 8.06925 13 8.04617 13 8.02585V7.97415ZM12.2768 8.02216C12.2768 8.04155 12.2768 8.06279 12.2758 8.08772C12.2748 8.15974 12.2728 8.23915 12.2708 8.32502C12.2637 8.57064 12.2497 8.81625 12.2286 9.04432C12.2015 9.34164 12.1633 9.58541 12.1161 9.74885C12.0538 9.96214 11.871 10.1311 11.64 10.1874C11.429 10.2392 10.8977 10.2807 10.1754 10.3056C9.80982 10.3186 9.41607 10.3269 9.02333 10.3315C8.88571 10.3333 8.75815 10.3343 8.64364 10.3343H8.35636L7.97667 10.3315C7.58393 10.3269 7.19118 10.3186 6.82455 10.3056C6.10234 10.2798 5.56998 10.2392 5.36004 10.1874C5.12902 10.1302 4.94621 9.96214 4.88393 9.74885C4.83672 9.58541 4.79855 9.34164 4.77143 9.04432C4.75033 8.81625 4.73728 8.57064 4.72924 8.32502C4.72623 8.23915 4.72522 8.15882 4.72422 8.08772C4.72422 8.06279 4.72321 8.04063 4.72321 8.02216V7.97784C4.72321 7.95845 4.72321 7.93721 4.72422 7.91228C4.72522 7.84026 4.72723 7.76085 4.72924 7.67498C4.73627 7.42936 4.75033 7.18375 4.77143 6.95568C4.79855 6.65836 4.83672 6.41459 4.88393 6.25115C4.94621 6.03786 5.12902 5.86888 5.36004 5.81256C5.57098 5.76085 6.10234 5.7193 6.82455 5.69437C7.19018 5.68144 7.58393 5.67313 7.97667 5.66851C8.11429 5.66667 8.24185 5.66574 8.35636 5.66574H8.64364L9.02333 5.66851C9.41607 5.67313 9.80882 5.68144 10.1754 5.69437C10.8977 5.72022 11.43 5.76085 11.64 5.81256C11.871 5.86981 12.0538 6.03786 12.1161 6.25115C12.1633 6.41459 12.2015 6.65836 12.2286 6.95568C12.2497 7.18375 12.2627 7.42936 12.2708 7.67498C12.2738 7.76085 12.2748 7.84118 12.2758 7.91228C12.2758 7.93721 12.2768 7.95937 12.2768 7.97784V8.02216ZM7.60603 9.2373L9.93638 7.99077L7.60603 6.7627V9.2373Z" fill="#2066E4"/>
</svg>
